<svg xmlns="http://www.w3.org/2000/svg" width="1200" height="630" viewBox="0 0 1200 630">
  <defs>
    <linearGradient id="bg" x1="0%" y1="0%" x2="100%" y2="100%">
      <stop offset="0%" style="stop-color:#050e1a"/>
      <stop offset="100%" style="stop-color:#0a1828"/>
    </linearGradient>
    <linearGradient id="green" x1="0%" y1="0%" x2="100%" y2="100%">
      <stop offset="0%" style="stop-color:#22d3ee"/>
      <stop offset="100%" style="stop-color:#0ea5e9"/>
    </linearGradient>
  </defs>
  <rect width="1200" height="630" fill="url(#bg)"/>
  <circle cx="200" cy="180" r="220" fill="#0ea5e9" opacity="0.06"/>
  <circle cx="1060" cy="460" r="260" fill="#22d3ee" opacity="0.05"/>

  <!-- Search bar -->
  <rect x="250" y="120" width="700" height="64" rx="32" fill="#0d1f35" stroke="#0ea5e9" stroke-width="2"/>
  <!-- Magnifier icon -->
  <circle cx="298" cy="152" r="16" fill="none" stroke="#0ea5e9" stroke-width="3"/>
  <line x1="309" y1="163" x2="322" y2="176" stroke="#0ea5e9" stroke-width="3" stroke-linecap="round"/>
  <!-- Search text -->
  <rect x="340" y="144" width="260" height="16" rx="8" fill="white" opacity="0.55"/>
  <!-- Search button -->
  <rect x="880" y="130" width="56" height="44" rx="22" fill="url(#green)" opacity="0.9"/>
  <polygon points="896,152 896,152 912,152" fill="none"/>
  <text x="908" y="158" font-family="system-ui" font-size="20" fill="white" text-anchor="middle">→</text>

  <!-- SERP results -->
  <!-- Result 1 - highlighted/top ranking -->
  <rect x="250" y="210" width="700" height="90" rx="10" fill="#0d1f35" stroke="#22d3ee" stroke-width="2"/>
  <rect x="272" y="228" width="180" height="13" rx="6" fill="#22d3ee" opacity="0.8"/>
  <rect x="272" y="248" width="420" height="11" rx="5" fill="white" opacity="0.5"/>
  <rect x="272" y="266" width="360" height="11" rx="5" fill="white" opacity="0.35"/>
  <rect x="272" y="284" width="80" height="11" rx="5" fill="#22d3ee" opacity="0.5"/>
  <!-- #1 badge -->
  <rect x="890" y="228" width="44" height="24" rx="12" fill="#22d3ee" opacity="0.9"/>
  <text x="912" y="244" font-family="system-ui" font-size="13" fill="#050e1a" text-anchor="middle" font-weight="700">#1</text>

  <!-- Result 2 -->
  <rect x="250" y="316" width="700" height="80" rx="10" fill="#091826" stroke="#0ea5e9" stroke-width="1" opacity="0.8"/>
  <rect x="272" y="332" width="160" height="12" rx="6" fill="#0ea5e9" opacity="0.6"/>
  <rect x="272" y="350" width="380" height="10" rx="5" fill="white" opacity="0.35"/>
  <rect x="272" y="368" width="310" height="10" rx="5" fill="white" opacity="0.25"/>
  <rect x="890" y="330" width="44" height="24" rx="12" fill="#0ea5e9" opacity="0.5"/>
  <text x="912" y="346" font-family="system-ui" font-size="13" fill="white" text-anchor="middle" opacity="0.8">#2</text>

  <!-- Result 3 -->
  <rect x="250" y="412" width="700" height="80" rx="10" fill="#091826" stroke="#0ea5e9" stroke-width="1" opacity="0.6"/>
  <rect x="272" y="428" width="140" height="12" rx="6" fill="#0ea5e9" opacity="0.4"/>
  <rect x="272" y="446" width="340" height="10" rx="5" fill="white" opacity="0.25"/>
  <rect x="272" y="464" width="280" height="10" rx="5" fill="white" opacity="0.2"/>
  <rect x="890" y="426" width="44" height="24" rx="12" fill="#0ea5e9" opacity="0.3"/>
  <text x="912" y="442" font-family="system-ui" font-size="13" fill="white" text-anchor="middle" opacity="0.6">#3</text>

  <!-- Keyword chart on right -->
  <rect x="980" y="210" width="180" height="282" rx="10" fill="#091826" stroke="#0ea5e9" stroke-width="1" opacity="0.8"/>
  <text x="1070" y="236" font-family="system-ui" font-size="12" fill="#22d3ee" text-anchor="middle" opacity="0.9">Keyword Volume</text>
  <rect x="1000" y="380" width="24" height="80" rx="4" fill="#22d3ee" opacity="0.4"/>
  <rect x="1032" y="340" width="24" height="120" rx="4" fill="#22d3ee" opacity="0.6"/>
  <rect x="1064" y="300" width="24" height="160" rx="4" fill="#22d3ee" opacity="0.8"/>
  <rect x="1096" y="320" width="24" height="140" rx="4" fill="#22d3ee"/>
  <rect x="1128" y="350" width="24" height="110" rx="4" fill="#22d3ee" opacity="0.7"/>
  <line x1="995" y1="462" x2="1158" y2="462" stroke="#0ea5e9" stroke-width="1" opacity="0.4"/>

  <!-- Title -->
  <text x="600" y="560" font-family="system-ui, -apple-system, sans-serif" font-size="42" font-weight="700" fill="white" text-anchor="middle" opacity="0.95">Best AI SEO Tools 2026</text>
  <text x="600" y="598" font-family="system-ui, -apple-system, sans-serif" font-size="22" fill="white" text-anchor="middle" opacity="0.5">Semrush · Ahrefs · Surfer SEO · HubSpot</text>
</svg>
