<svg xmlns="http://www.w3.org/2000/svg" width="1200" height="630" viewBox="0 0 1200 630">
  <defs>
    <linearGradient id="bg" x1="0%" y1="0%" x2="100%" y2="100%">
      <stop offset="0%" style="stop-color:#0f1f0f"/>
      <stop offset="100%" style="stop-color:#1a2e1a"/>
    </linearGradient>
  </defs>
  <rect width="1200" height="630" fill="url(#bg)"/>
  <circle cx="1100" cy="150" r="220" fill="#22c55e" opacity="0.06"/>
  <circle cx="100" cy="500" r="200" fill="#16a34a" opacity="0.06"/>
  <!-- Document with corrections -->
  <rect x="340" y="120" width="520" height="360" rx="14" fill="#141f14" stroke="#22c55e" stroke-width="1.5" opacity="0.95"/>
  <!-- Header line -->
  <rect x="370" y="160" width="200" height="16" rx="8" fill="white" opacity="0.7"/>
  <!-- Text lines with corrections -->
  <rect x="370" y="198" width="280" height="12" rx="6" fill="white" opacity="0.4"/>
  <!-- Strikethrough error word -->
  <rect x="370" y="226" width="90" height="12" rx="6" fill="#ef4444" opacity="0.5"/>
  <line x1="368" y1="232" x2="462" y2="232" stroke="#ef4444" stroke-width="2"/>
  <rect x="370" y="226" width="90" height="12" rx="6" fill="none" stroke="#ef4444" stroke-width="1" stroke-dasharray="3,2"/>
  <!-- Correction above -->
  <rect x="370" y="208" width="70" height="12" rx="6" fill="#22c55e" opacity="0.7"/>
  <line x1="405" y1="220" x1="405" y2="226" x2="405" y2="226" stroke="#22c55e" stroke-width="1.5" stroke-dasharray="3"/>
  <!-- More text -->
  <rect x="472" y="226" width="200" height="12" rx="6" fill="white" opacity="0.35"/>
  <rect x="370" y="252" width="250" height="12" rx="6" fill="white" opacity="0.4"/>
  <rect x="370" y="278" width="180" height="12" rx="6" fill="white" opacity="0.35"/>
  <!-- Underline suggestion -->
  <rect x="370" y="306" width="120" height="12" rx="6" fill="white" opacity="0.35"/>
  <rect x="502" y="306" width="100" height="12" rx="6" fill="#fbbf24" opacity="0.6"/>
  <line x1="502" y1="319" x2="600" y2="319" stroke="#fbbf24" stroke-width="2" stroke-dasharray="4,2"/>
  <rect x="614" y="306" width="130" height="12" rx="6" fill="white" opacity="0.3"/>
  <!-- More text lines -->
  <rect x="370" y="340" width="270" height="12" rx="6" fill="white" opacity="0.4"/>
  <rect x="370" y="366" width="220" height="12" rx="6" fill="white" opacity="0.3"/>
  <rect x="370" y="392" width="190" height="12" rx="6" fill="white" opacity="0.25"/>
  <!-- Big checkmark -->
  <circle cx="800" cy="300" r="50" fill="#22c55e" opacity="0.15" stroke="#22c55e" stroke-width="2"/>
  <polyline points="776,300 793,318 824,282" fill="none" stroke="#22c55e" stroke-width="4" stroke-linecap="round" stroke-linejoin="round"/>
  <!-- Title -->
  <text x="600" y="560" font-family="system-ui, -apple-system, sans-serif" font-size="42" font-weight="700" fill="white" text-anchor="middle" opacity="0.95">Best AI Grammar Checkers 2026</text>
  <text x="600" y="598" font-family="system-ui, -apple-system, sans-serif" font-size="22" fill="white" text-anchor="middle" opacity="0.5">Grammarly · ProWritingAid · LanguageTool</text>
</svg>
