<svg xmlns="http://www.w3.org/2000/svg" width="1200" height="630" viewBox="0 0 1200 630">
  <defs>
    <linearGradient id="bg" x1="0%" y1="0%" x2="100%" y2="100%">
      <stop offset="0%" style="stop-color:#0c1a2e"/>
      <stop offset="100%" style="stop-color:#0f2440"/>
    </linearGradient>
    <linearGradient id="teal" x1="0%" y1="0%" x2="100%" y2="100%">
      <stop offset="0%" style="stop-color:#0ea5e9"/>
      <stop offset="100%" style="stop-color:#06b6d4"/>
    </linearGradient>
  </defs>
  <rect width="1200" height="630" fill="url(#bg)"/>
  <circle cx="200" cy="200" r="200" fill="#0ea5e9" opacity="0.07"/>
  <circle cx="1050" cy="430" r="240" fill="#06b6d4" opacity="0.06"/>
  <!-- Video call grid -->
  <rect x="290" y="120" width="240" height="160" rx="12" fill="#0f2a3f" stroke="#0ea5e9" stroke-width="1.5"/>
  <circle cx="410" cy="180" r="32" fill="#1e4060"/>
  <rect x="378" y="224" width="64" height="12" rx="6" fill="white" opacity="0.4"/>
  <rect x="290" y="295" width="240" height="16" rx="4" fill="#0ea5e9" opacity="0.2"/>
  <!-- Sound wave -->
  <line x1="310" y1="303" x2="310" y2="303" stroke="#0ea5e9" stroke-width="3" stroke-linecap="round"/>
  <rect x="310" y="296" width="3" height="14" rx="1.5" fill="#0ea5e9" opacity="0.9"/>
  <rect x="320" y="292" width="3" height="22" rx="1.5" fill="#0ea5e9"/>
  <rect x="330" y="297" width="3" height="12" rx="1.5" fill="#0ea5e9" opacity="0.8"/>
  <rect x="340" y="294" width="3" height="18" rx="1.5" fill="#0ea5e9"/>
  <rect x="350" y="298" width="3" height="10" rx="1.5" fill="#0ea5e9" opacity="0.7"/>
  <rect x="360" y="293" width="3" height="20" rx="1.5" fill="#0ea5e9"/>
  <rect x="370" y="296" width="3" height="14" rx="1.5" fill="#0ea5e9" opacity="0.9"/>
  <rect x="380" y="291" width="3" height="24" rx="1.5" fill="#0ea5e9"/>
  <rect x="390" y="297" width="3" height="12" rx="1.5" fill="#0ea5e9" opacity="0.6"/>
  <rect x="400" y="294" width="3" height="18" rx="1.5" fill="#0ea5e9"/>

  <rect x="550" y="120" width="240" height="160" rx="12" fill="#0f2a3f" stroke="#0ea5e9" stroke-width="1.5"/>
  <circle cx="670" cy="180" r="32" fill="#1a3d60"/>
  <rect x="638" y="224" width="64" height="12" rx="6" fill="white" opacity="0.4"/>

  <rect x="810" y="120" width="240" height="160" rx="12" fill="#0f2a3f" stroke="#06b6d4" stroke-width="1.5"/>
  <circle cx="930" cy="180" r="32" fill="#1a3d60"/>
  <!-- Recording dot -->
  <circle cx="1028" cy="132" r="10" fill="#ef4444"/>
  <rect x="918" y="224" width="64" height="12" rx="6" fill="white" opacity="0.4"/>

  <!-- AI Transcript panel -->
  <rect x="290" y="330" width="760" height="160" rx="12" fill="#0a1f35" stroke="#0ea5e9" stroke-width="1" opacity="0.9"/>
  <text x="316" y="358" font-family="system-ui, sans-serif" font-size="14" fill="#0ea5e9" font-weight="600">AI Transcript — Live</text>
  <rect x="316" y="368" width="500" height="12" rx="6" fill="white" opacity="0.35"/>
  <rect x="316" y="388" width="430" height="12" rx="6" fill="white" opacity="0.3"/>
  <rect x="316" y="408" width="480" height="12" rx="6" fill="white" opacity="0.25"/>
  <rect x="316" y="428" width="360" height="12" rx="6" fill="#0ea5e9" opacity="0.5"/>
  <text x="316" y="476" font-family="system-ui, sans-serif" font-size="13" fill="#06b6d4" opacity="0.8">✦ Action items detected: 3</text>

  <!-- Title -->
  <text x="600" y="568" font-family="system-ui, -apple-system, sans-serif" font-size="42" font-weight="700" fill="white" text-anchor="middle" opacity="0.95">Best AI Meeting Assistants 2026</text>
  <text x="600" y="606" font-family="system-ui, -apple-system, sans-serif" font-size="22" fill="white" text-anchor="middle" opacity="0.5">Otter.ai · Fathom · Fireflies · Otter AI</text>
</svg>
